<?xml version="1.0" standalone="no"?>
<!DOCTYPE svg PUBLIC "-//W3C//DTD SVG 20010904//EN"
 "http://www.w3.org/TR/2001/REC-SVG-20010904/DTD/svg10.dtd">
<svg version="1.0" xmlns="http://www.w3.org/2000/svg"
 width="89.000000pt" height="89.000000pt" viewBox="0 0 89.000000 89.000000"
 preserveAspectRatio="xMidYMid meet">

<g transform="translate(0.000000,89.000000) scale(0.100000,-0.100000)"
fill="#000000" stroke="none">
<path d="M323 808 c-123 -45 -203 -127 -242 -246 -39 -117 -18 -246 57 -347
l37 -50 5 273 5 274 25 20 c19 16 35 19 72 16 54 -6 74 -20 103 -75 11 -21 39
-71 62 -111 24 -40 43 -74 43 -77 0 -7 112 -195 116 -195 2 0 4 113 4 251 l0
250 -37 16 c-64 27 -178 27 -250 1z"/>
<path d="M710 452 c0 -306 1 -302 -89 -302 -47 0 -61 4 -79 23 -12 13 -22 26
-22 29 0 4 -21 42 -46 85 -26 43 -65 112 -87 153 -22 41 -53 95 -69 120 l-28
45 0 -257 0 -256 38 -14 c57 -20 187 -17 247 6 155 59 250 195 250 361 0 54
-6 96 -19 130 -20 53 -74 135 -88 135 -4 0 -8 -116 -8 -258z"/>
</g>
</svg>
